<?xml version="1.0" encoding="UTF-8"?>
<svg id="Layer_2" data-name="Layer 2" xmlns="http://www.w3.org/2000/svg" viewBox="0 0 3071.69 872.38">
  <g id="Layer_1-2" data-name="Layer 1">
    <rect x="424.02" y="549.5" width="2217.39" height="316.88" rx="158.44" ry="158.44" style="fill: #fff; stroke: #1d1d1d; stroke-linejoin: round; stroke-width: 12px;"/>
    <g>
      <path d="M15.29,513.46h35.99c12.83,0,23.22,10.4,23.22,23.22v213.57c0,64.13,51.99,116.12,116.12,116.12h92.88c5.13,0,9.29-4.16,9.29-9.29v-130.3c0-5.13-4.16-9.29-9.29-9.29h-71.29c-12.83,0-23.22-10.4-23.22-23.22V178.1c0-12.83,10.4-23.22,23.22-23.22h71.29c5.13,0,9.29-4.16,9.29-9.29V15.29c0-5.13-4.16-9.29-9.29-9.29h-92.88c-64.13,0-116.12,51.99-116.12,116.12v213.43c0,12.83-10.4,23.22-23.22,23.22H15.29c-5.13,0-9.29,4.16-9.29,9.29v136.1c0,5.13,4.16,9.29,9.29,9.29Z" style="fill: #e84434; stroke: #1d1d1d; stroke-miterlimit: 10; stroke-width: 12px;"/>
      <path d="M3056.4,358.92h-35.99c-12.83,0-23.22-10.4-23.22-23.22V122.12c0-64.13-51.99-116.12-116.12-116.12h-92.88c-5.13,0-9.29,4.16-9.29,9.29v130.3c0,5.13,4.16,9.29,9.29,9.29h71.29c12.83,0,23.22,10.4,23.22,23.22v516.18c0,12.83-10.4,23.22-23.22,23.22h-71.29c-5.13,0-9.29,4.16-9.29,9.29v130.3c0,5.13,4.16,9.29,9.29,9.29h92.88c64.13,0,116.12-51.99,116.12-116.12v-213.43c0-12.83,10.4-23.22,23.22-23.22h35.99c5.13,0,9.29-4.16,9.29-9.29v-136.1c0-5.13-4.16-9.29-9.29-9.29Z" style="fill: #32a750; stroke: #1d1d1d; stroke-miterlimit: 10; stroke-width: 12px;"/>
      <path d="M425.36,434.84V6h144.94c45.52,0,84.75,9.09,117.69,27.25,32.94,18.17,58.29,43.33,76.07,75.46,17.76,32.15,26.65,69.38,26.65,111.7s-8.89,79.66-26.65,112c-17.77,32.34-43.12,57.5-76.07,75.47-32.94,17.97-72.17,26.95-117.69,26.95h-144.94ZM506.22,358.18h60.49c31.54,0,57.89-5.69,79.06-17.07,21.16-11.38,37.03-27.45,47.62-48.21,10.57-20.76,15.87-44.92,15.87-72.47s-5.3-52.2-15.87-72.77c-10.59-20.56-26.46-36.54-47.62-47.92-21.17-11.38-47.52-17.07-79.06-17.07h-60.49v275.51Z" style="fill: #e84434;"/>
      <path d="M989.56,444.42c-30.75,0-58.2-6.99-82.35-20.96-24.16-13.97-43.12-33.14-56.9-57.5-13.78-24.35-20.66-52.11-20.66-83.25,0-29.14,6.79-56.09,20.36-80.86,13.57-24.75,32.14-44.62,55.7-59.59,23.55-14.97,50.51-22.46,80.86-22.46,32.74,0,60.29,6.99,82.65,20.96,22.36,13.98,39.32,32.64,50.91,56,11.58,23.36,17.37,49.22,17.37,77.56,0,6.39-.21,11.88-.6,16.47-.4,4.59-.81,7.89-1.2,9.88h-262.34v-55.7h188.67c-.4-6.79-2.4-13.78-5.99-20.96-3.59-7.19-8.59-13.78-14.97-19.76-6.39-5.99-14.08-10.88-23.06-14.67-8.98-3.79-19.27-5.69-30.85-5.69-15.18,0-29.05,3.99-41.63,11.98-12.58,7.99-22.46,19.07-29.65,33.24-7.19,14.18-10.78,31.05-10.78,50.61s3.79,37.64,11.38,51.81c7.58,14.18,17.87,24.96,30.85,32.34,12.97,7.39,27.45,11.08,43.42,11.08,18.76,0,34.53-4.09,47.32-12.28,12.77-8.18,22.76-18.46,29.95-30.85l63.49,31.15c-14.37,25.15-33.15,45.02-56.3,59.59-23.16,14.57-51.72,21.86-85.65,21.86Z" style="fill: #e84434;"/>
      <path d="M1269.03,434.84l-129.37-305.46h89.24l77.26,198.85h4.79l78.46-198.85h88.04l-130.57,305.46h-77.86Z" style="fill: #e84434;"/>
      <path d="M1516.08,434.84V6h271.92v76.66h-191.06v352.18h-80.86ZM1561,263.54v-76.66h207.83v76.66h-207.83Z" style="fill: #32a750;"/>
      <path d="M1971.57,444.42c-30.75,0-58.2-6.99-82.35-20.96-24.16-13.97-43.12-33.14-56.9-57.5-13.78-24.35-20.66-52.11-20.66-83.25,0-29.14,6.79-56.09,20.36-80.86,13.57-24.75,32.14-44.62,55.7-59.59,23.55-14.97,50.51-22.46,80.86-22.46,32.74,0,60.29,6.99,82.65,20.96,22.36,13.98,39.32,32.64,50.91,56,11.58,23.36,17.37,49.22,17.37,77.56,0,6.39-.21,11.88-.6,16.47-.4,4.59-.81,7.89-1.2,9.88h-262.34v-55.7h188.67c-.4-6.79-2.4-13.78-5.99-20.96-3.59-7.19-8.59-13.78-14.97-19.76-6.39-5.99-14.08-10.88-23.06-14.67-8.98-3.79-19.27-5.69-30.85-5.69-15.18,0-29.05,3.99-41.63,11.98-12.58,7.99-22.46,19.07-29.65,33.24-7.19,14.18-10.78,31.05-10.78,50.61s3.79,37.64,11.38,51.81c7.58,14.18,17.87,24.96,30.85,32.34,12.97,7.39,27.45,11.08,43.42,11.08,18.76,0,34.53-4.09,47.32-12.28,12.77-8.18,22.76-18.46,29.95-30.85l63.49,31.15c-14.37,25.15-33.15,45.02-56.3,59.59-23.16,14.57-51.72,21.86-85.65,21.86Z" style="fill: #32a750;"/>
      <path d="M2284.04,444.42c-26.35,0-48.81-3.8-67.38-11.38-18.57-7.58-33.64-17.57-45.22-29.95-11.59-12.37-20.17-25.95-25.75-40.73l70.07-30.55c6.79,14.37,15.97,25.26,27.55,32.64,11.58,7.39,25.16,11.08,40.73,11.08,12.77,0,24.35-2.1,34.74-6.29,10.38-4.19,15.57-11.87,15.57-23.06,0-7.98-2.7-14.27-8.09-18.87-5.39-4.59-12.08-8.18-20.07-10.78-7.99-2.59-16.17-4.69-24.56-6.29l-35.94-7.79c-14.78-3.19-28.75-8.88-41.93-17.07-13.18-8.18-23.86-18.57-32.04-31.14-8.19-12.58-12.28-27.05-12.28-43.42,0-18.36,5.29-34.34,15.87-47.92,10.57-13.57,24.95-24.15,43.12-31.74,18.16-7.58,38.23-11.38,60.19-11.38,20.36,0,38.73,2.4,55.1,7.19,16.37,4.79,30.55,12.08,42.53,21.86,11.98,9.79,21.56,22.26,28.75,37.43l-67.08,29.35c-6.39-11.98-14.67-20.36-24.85-25.15-10.18-4.79-21.07-7.19-32.64-7.19-13.58,0-24.36,2.6-32.34,7.79-7.99,5.19-11.98,11.38-11.98,18.57,0,7.59,3.99,14.18,11.98,19.76,7.98,5.6,17.57,9.79,28.75,12.58l44.92,10.78c30.34,7.19,53.2,18.77,68.58,34.74,15.37,15.98,23.06,35.14,23.06,57.5,0,19.97-5.79,37.43-17.37,52.41-11.59,14.97-27.16,26.56-46.72,34.74-19.57,8.18-41.33,12.28-65.29,12.28Z" style="fill: #32a750;"/>
      <path d="M2436.71,196.46v-67.08h56.3v67.08h-56.3ZM2591.23,439.63c-31.55,0-56.3-9.08-74.27-27.25-17.97-18.16-26.95-43.22-26.95-75.17V43.14h78.46v279.7c0,14.78,3,25.66,8.98,32.64,5.99,6.99,15.77,10.48,29.35,10.48,6.38,0,12.37-.9,17.97-2.7,5.59-1.8,12.58-5.29,20.96-10.48v76.66c-8.79,3.2-17.67,5.69-26.65,7.49-8.98,1.8-18.27,2.7-27.85,2.7ZM2565.48,196.46v-67.08h77.86v67.08h-77.86Z" style="fill: #32a750;"/>
      <g>
        <path d="M545.41,652.1h41.92c5.87,0,11.39,1.36,16.56,4.08,5.16,2.72,9.27,6.47,12.31,11.25,3.04,4.79,4.57,10.17,4.57,16.15,0,5.66-1.44,10.6-4.32,14.84-2.88,4.24-6.77,7.5-11.66,9.79v.65c5.87,1.96,10.66,5.33,14.35,10.11,3.7,4.79,5.55,10.39,5.55,16.8s-1.61,11.99-4.81,17.04c-3.21,5.06-7.5,9-12.89,11.83-5.38,2.83-11.17,4.24-17.37,4.24h-44.2v-116.79ZM587.33,702.66c3.91,0,7.37-.92,10.36-2.77,2.99-1.85,5.3-4.21,6.93-7.1,1.63-2.88,2.45-5.84,2.45-8.89s-.79-5.84-2.37-8.73c-1.58-2.88-3.81-5.25-6.69-7.1-2.88-1.85-6.23-2.77-10.03-2.77h-28.87v37.35h28.22ZM590.43,755.67c3.92,0,7.42-.98,10.52-2.94,3.1-1.96,5.49-4.49,7.18-7.58,1.68-3.1,2.53-6.28,2.53-9.54s-.87-6.44-2.61-9.54c-1.74-3.1-4.19-5.6-7.34-7.5-3.16-1.9-6.8-2.85-10.93-2.85h-30.67v39.96h31.32Z" style="fill: #e84434;"/>
        <path d="M655.51,765.79c-6.31-3.8-11.23-9.05-14.76-15.74-3.54-6.69-5.3-14.22-5.3-22.59s1.66-15.44,4.98-22.18c3.32-6.74,8.02-12.12,14.11-16.15,6.09-4.02,13.16-6.04,21.2-6.04s15.22,1.82,21.21,5.46c5.98,3.64,10.57,8.67,13.78,15.09,3.21,6.42,4.81,13.76,4.81,22.02,0,1.63-.16,3.05-.49,4.24h-65.73c.33,6.31,1.85,11.64,4.57,15.98,2.72,4.35,6.17,7.61,10.36,9.79,4.18,2.18,8.56,3.26,13.13,3.26,10.66,0,18.86-5,24.63-15.01l11.74,5.71c-3.59,6.74-8.46,12.07-14.6,15.98-6.15,3.92-13.57,5.87-22.27,5.87-7.94,0-15.06-1.9-21.37-5.71ZM700.85,718.49c-.22-3.48-1.2-6.96-2.94-10.44-1.74-3.48-4.49-6.42-8.24-8.81-3.75-2.39-8.46-3.59-14.11-3.59-6.52,0-12.04,2.09-16.56,6.28-4.51,4.19-7.48,9.71-8.89,16.56h50.73Z" style="fill: #e84434;"/>
        <path d="M731.19,667.59c-1.96-1.96-2.94-4.29-2.94-7.01s.98-5.03,2.94-6.93c1.96-1.9,4.29-2.85,7.01-2.85s5.06.95,7.01,2.85c1.96,1.9,2.94,4.22,2.94,6.93s-.95,5.06-2.85,7.01c-1.9,1.96-4.27,2.94-7.1,2.94s-5.06-.98-7.01-2.94ZM731.35,685.7h13.7v83.19h-13.7v-83.19Z" style="fill: #e84434;"/>
        <path d="M765.28,685.7h13.21v13.38h.65c1.63-4.57,4.78-8.37,9.46-11.42,4.67-3.04,9.57-4.57,14.68-4.57,3.81,0,7.07.6,9.79,1.79v14.84c-3.48-1.74-7.4-2.61-11.74-2.61-4.02,0-7.72,1.14-11.09,3.43-3.37,2.29-6.06,5.37-8.07,9.24-2.01,3.87-3.02,8.04-3.02,12.51v46.59h-13.86v-83.19Z" style="fill: #e84434;"/>
        <path d="M832.07,762.69c-5.28-5.87-7.91-14.08-7.91-24.63v-52.36h13.86v50.24c0,7.94,1.79,13.76,5.38,17.45,3.59,3.7,8.43,5.54,14.52,5.54,4.67,0,8.83-1.25,12.48-3.75,3.64-2.5,6.47-5.76,8.48-9.79,2.01-4.02,3.02-8.26,3.02-12.72v-46.98h13.86v83.19h-13.21v-12.07h-.65c-2.28,4.13-5.93,7.61-10.93,10.44-5,2.83-10.33,4.24-15.99,4.24-10.01,0-17.64-2.94-22.92-8.81Z" style="fill: #e84434;"/>
        <path d="M938.09,769.84c-2.88-1.11-5.3-2.6-7.26-4.49-2.18-2.1-3.81-4.54-4.89-7.31-1.09-2.77-1.63-6.14-1.63-10.13v-49.66h-14.52v-12.56h14.52v-23.49h13.86v23.49h20.23v12.56h-20.23v46.35c0,4.67.87,8.11,2.61,10.34,2.06,2.45,5.06,3.67,8.97,3.67,3.15,0,6.2-.92,9.13-2.77v13.54c-1.63.76-3.29,1.3-4.97,1.63-1.69.33-3.83.49-6.44.49-3.37,0-6.5-.55-9.38-1.66Z" style="fill: #e84434;"/>
        <path d="M971.61,782.42l8.64-13.54c-1.96-.33-3.7-1.36-5.22-3.1-1.52-1.74-2.28-3.86-2.28-6.36,0-2.83,1-5.24,3.02-7.26s4.49-3.02,7.42-3.02,5.41,1.01,7.42,3.02c2.01,2.01,3.02,4.43,3.02,7.26,0,1.85-.38,3.62-1.14,5.3-.76,1.69-1.9,3.62-3.43,5.79l-10.77,16.31-6.69-4.4Z" style="fill: #e84434;"/>
        <path d="M1071.44,763.5c-9.24-5.33-16.58-12.67-22.02-22.02-5.44-9.35-8.16-19.68-8.16-30.99s2.72-21.64,8.16-30.99c5.44-9.35,12.78-16.69,22.02-22.02,9.24-5.33,19.35-7.99,30.34-7.99,8.59,0,16.66,1.52,24.22,4.57,7.56,3.05,13.78,7.34,18.68,12.89l-9.95,9.95c-3.7-4.57-8.43-8.07-14.19-10.52-5.76-2.45-11.96-3.67-18.59-3.67-8.27,0-15.96,1.99-23.08,5.95-7.12,3.97-12.83,9.57-17.13,16.8-4.3,7.23-6.44,15.58-6.44,25.04s2.15,17.81,6.44,25.04c4.29,7.23,10.03,12.83,17.21,16.8,7.18,3.97,14.84,5.95,23,5.95s14.38-1.22,19.66-3.67c5.27-2.45,9.81-5.68,13.62-9.71,2.83-3.04,5.11-6.71,6.85-11.01,1.74-4.29,2.83-9.05,3.26-14.27h-43.22v-12.89h56.11c.54,3.05.82,5.87.82,8.48,0,7.18-1.14,14.17-3.43,20.96-2.28,6.8-5.93,12.75-10.93,17.86-10.77,11.64-25.07,17.45-42.9,17.45-10.98,0-21.1-2.66-30.34-7.99Z" style="fill: #1d1d1d;"/>
        <path d="M1177.95,652.1h35.23c11.96,0,22.4,2.47,31.32,7.42,8.92,4.95,15.77,11.83,20.55,20.63,4.78,8.81,7.18,18.92,7.18,30.34s-2.39,21.53-7.18,30.34c-4.79,8.81-11.64,15.69-20.55,20.63-8.92,4.95-19.36,7.42-31.32,7.42h-35.23v-116.79ZM1213.18,755.67c13.81,0,24.77-3.97,32.87-11.91,8.1-7.94,12.15-19.03,12.15-33.28s-4.05-25.34-12.15-33.27c-8.1-7.94-19.06-11.91-32.87-11.91h-21.53v90.36h21.53Z" style="fill: #1d1d1d;"/>
        <path d="M1315.45,763.5c-9.24-5.33-16.58-12.67-22.02-22.02-5.44-9.35-8.16-19.68-8.16-30.99s2.72-21.64,8.16-30.99c5.44-9.35,12.78-16.69,22.02-22.02,9.24-5.33,19.35-7.99,30.34-7.99,8.59,0,16.66,1.52,24.22,4.57,7.56,3.05,13.78,7.34,18.68,12.89l-9.95,9.95c-3.7-4.57-8.43-8.07-14.19-10.52-5.76-2.45-11.96-3.67-18.59-3.67-8.27,0-15.96,1.99-23.08,5.95-7.12,3.97-12.83,9.57-17.13,16.8-4.3,7.23-6.44,15.58-6.44,25.04s2.15,17.81,6.44,25.04c4.29,7.23,10.03,12.83,17.21,16.8,7.18,3.97,14.84,5.95,23,5.95s14.38-1.22,19.66-3.67c5.27-2.45,9.81-5.68,13.62-9.71,2.83-3.04,5.11-6.71,6.85-11.01,1.74-4.29,2.83-9.05,3.26-14.27h-43.22v-12.89h56.11c.54,3.05.82,5.87.82,8.48,0,7.18-1.14,14.17-3.43,20.96-2.28,6.8-5.93,12.75-10.93,17.86-10.77,11.64-25.07,17.45-42.9,17.45-10.98,0-21.1-2.66-30.34-7.99Z" style="fill: #1d1d1d;"/>
        <path d="M1478.89,763.5c-9.24-5.33-16.5-12.64-21.78-21.94-5.28-9.3-7.91-19.66-7.91-31.07s2.64-21.78,7.91-31.07c5.27-9.3,12.53-16.61,21.78-21.94,9.24-5.33,19.52-7.99,30.83-7.99,8.7,0,16.66,1.66,23.9,4.98,7.23,3.32,13.51,8.02,18.84,14.11l-9.95,9.62c-4.46-5.33-9.33-9.24-14.6-11.74-5.28-2.5-11.34-3.75-18.19-3.75-8.48,0-16.26,1.99-23.33,5.95-7.07,3.97-12.7,9.57-16.88,16.8-4.19,7.23-6.28,15.58-6.28,25.04s2.09,17.81,6.28,25.04c4.19,7.23,9.81,12.83,16.88,16.8,7.07,3.97,14.84,5.95,23.33,5.95,14.13,0,26.15-5.82,36.05-17.45l10.11,9.79c-5.44,6.42-12.13,11.5-20.06,15.25-7.94,3.75-16.64,5.63-26.1,5.63-11.31,0-21.59-2.66-30.83-7.99Z" style="fill: #1d1d1d;"/>
        <path d="M1584.42,765.62c-6.52-3.91-11.61-9.24-15.25-15.98-3.64-6.74-5.46-14.19-5.46-22.35s1.82-15.6,5.46-22.35c3.64-6.74,8.73-12.07,15.25-15.99,6.52-3.92,13.86-5.87,22.02-5.87s15.5,1.96,22.02,5.87c6.52,3.91,11.61,9.24,15.25,15.99,3.64,6.74,5.46,14.19,5.46,22.35s-1.82,15.61-5.46,22.35c-3.64,6.74-8.73,12.07-15.25,15.98-6.52,3.92-13.86,5.87-22.02,5.87s-15.5-1.96-22.02-5.87ZM1620.72,755.1c4.4-2.55,7.94-6.22,10.6-11.01,2.66-4.78,4-10.38,4-16.8s-1.33-12.01-4-16.8c-2.67-4.78-6.2-8.45-10.6-11.01-4.4-2.55-9.16-3.83-14.27-3.83s-9.9,1.28-14.35,3.83c-4.46,2.56-8.02,6.23-10.68,11.01-2.67,4.79-4,10.39-4,16.8s1.33,12.02,4,16.8c2.66,4.79,6.22,8.46,10.68,11.01,4.46,2.56,9.24,3.83,14.35,3.83s9.87-1.28,14.27-3.83Z" style="fill: #1d1d1d;"/>
        <path d="M1673.97,767.91c-4.79-2.39-8.48-5.68-11.09-9.87-2.61-4.18-3.91-8.94-3.91-14.27,0-8.81,3.32-15.68,9.95-20.63,6.63-4.95,15.01-7.42,25.12-7.42,5,0,9.65.55,13.95,1.63,4.29,1.09,7.58,2.34,9.87,3.75v-5.06c0-6.2-2.18-11.17-6.52-14.92-4.35-3.75-9.84-5.63-16.47-5.63-4.68,0-8.97,1.01-12.89,3.02-3.91,2.01-7.01,4.81-9.3,8.4l-10.44-7.83c3.26-5,7.75-8.92,13.46-11.74,5.71-2.83,12.04-4.24,19-4.24,11.31,0,20.2,2.96,26.67,8.89,6.47,5.93,9.71,14,9.71,24.22v52.69h-13.21v-11.91h-.65c-2.39,4.02-5.98,7.45-10.77,10.28-4.79,2.83-10.17,4.24-16.15,4.24s-11.53-1.2-16.31-3.59ZM1704.64,755.67c4.02-2.39,7.23-5.6,9.62-9.62,2.39-4.02,3.59-8.43,3.59-13.21-2.61-1.74-5.82-3.15-9.62-4.24-3.81-1.08-7.83-1.63-12.07-1.63-7.61,0-13.35,1.58-17.21,4.73-3.86,3.16-5.79,7.23-5.79,12.23,0,4.57,1.74,8.27,5.22,11.09,3.48,2.83,7.88,4.24,13.21,4.24,4.67,0,9.02-1.19,13.05-3.59Z" style="fill: #1d1d1d;"/>
        <path d="M1754.55,765.22c-5.98-4.18-10.22-9.54-12.72-16.07l12.4-5.55c2.06,5,5.14,8.86,9.22,11.58,4.08,2.72,8.56,4.08,13.46,4.08,5.22,0,9.68-1.06,13.38-3.18,3.7-2.12,5.55-5.14,5.55-9.05,0-3.48-1.47-6.28-4.4-8.4-2.94-2.12-7.56-3.94-13.86-5.46l-10.11-2.61c-6.63-1.63-12.07-4.4-16.31-8.32-4.24-3.91-6.36-8.97-6.36-15.17,0-4.78,1.44-9,4.32-12.64,2.88-3.64,6.71-6.44,11.5-8.4,4.78-1.96,9.95-2.94,15.5-2.94,7.28,0,13.78,1.58,19.49,4.73,5.71,3.16,9.76,7.56,12.15,13.21l-12.07,5.55c-3.7-7.39-10.28-11.09-19.74-11.09-4.57,0-8.56,1.06-11.99,3.18-3.43,2.12-5.14,4.81-5.14,8.07,0,3.05,1.2,5.52,3.59,7.42,2.39,1.9,5.98,3.45,10.77,4.65l12.07,3.1c8.16,2.07,14.3,5.14,18.43,9.22,4.13,4.08,6.2,9.05,6.2,14.92,0,5.11-1.47,9.6-4.4,13.46-2.94,3.86-6.91,6.83-11.91,8.89-5,2.06-10.55,3.1-16.64,3.1-8.92,0-16.37-2.09-22.35-6.28Z" style="fill: #1d1d1d;"/>
        <path d="M1845.16,769.84c-2.88-1.11-5.3-2.6-7.26-4.49-2.18-2.1-3.81-4.54-4.89-7.31-1.09-2.77-1.63-6.14-1.63-10.13v-49.66h-14.52v-12.56h14.52v-23.49h13.86v23.49h20.23v12.56h-20.23v46.35c0,4.67.87,8.11,2.61,10.34,2.06,2.45,5.06,3.67,8.97,3.67,3.15,0,6.2-.92,9.13-2.77v13.54c-1.63.76-3.29,1.3-4.97,1.63-1.69.33-3.83.49-6.44.49-3.37,0-6.5-.55-9.38-1.66Z" style="fill: #1d1d1d;"/>
        <path d="M1919.62,652.1h13.7v103.58h51.22v13.21h-64.92v-116.79Z" style="fill: #1d1d1d;"/>
        <path d="M2011.94,765.79c-6.31-3.8-11.23-9.05-14.76-15.74-3.54-6.69-5.3-14.22-5.3-22.59s1.66-15.44,4.97-22.18c3.32-6.74,8.02-12.12,14.11-16.15,6.09-4.02,13.16-6.04,21.21-6.04s15.22,1.82,21.2,5.46c5.98,3.64,10.57,8.67,13.78,15.09,3.21,6.42,4.81,13.76,4.81,22.02,0,1.63-.16,3.05-.49,4.24h-65.73c.33,6.31,1.85,11.64,4.57,15.98,2.72,4.35,6.17,7.61,10.36,9.79,4.19,2.18,8.56,3.26,13.13,3.26,10.66,0,18.87-5,24.63-15.01l11.74,5.71c-3.59,6.74-8.46,12.07-14.6,15.98-6.14,3.92-13.57,5.87-22.26,5.87-7.94,0-15.06-1.9-21.37-5.71ZM2057.28,718.49c-.22-3.48-1.2-6.96-2.94-10.44-1.74-3.48-4.49-6.42-8.24-8.81-3.75-2.39-8.46-3.59-14.11-3.59-6.52,0-12.04,2.09-16.56,6.28-4.51,4.19-7.48,9.71-8.89,16.56h50.73Z" style="fill: #1d1d1d;"/>
        <path d="M2111.68,767.17c-5.06-2.88-8.84-6.39-11.34-10.52h-.65v12.23h-13.21v-116.79h13.86v34.42l-.65,11.58h.65c2.5-4.24,6.28-7.8,11.34-10.68,5.06-2.88,10.74-4.32,17.05-4.32,7.39,0,14.13,1.9,20.23,5.71,6.09,3.81,10.87,9.08,14.35,15.82,3.48,6.74,5.22,14.3,5.22,22.67s-1.74,16.07-5.22,22.75c-3.48,6.69-8.27,11.93-14.35,15.74-6.09,3.81-12.83,5.71-20.23,5.71-6.31,0-11.99-1.44-17.05-4.32ZM2140.63,755.02c4.24-2.61,7.64-6.33,10.19-11.17,2.55-4.84,3.83-10.36,3.83-16.56s-1.28-11.72-3.83-16.56c-2.56-4.84-5.95-8.56-10.19-11.17-4.24-2.61-8.75-3.92-13.54-3.92s-9.3,1.3-13.54,3.92c-4.24,2.61-7.61,6.31-10.11,11.09-2.5,4.79-3.75,10.33-3.75,16.64s1.25,11.85,3.75,16.64c2.5,4.79,5.87,8.48,10.11,11.09,4.24,2.61,8.75,3.91,13.54,3.91s9.3-1.3,13.54-3.91Z" style="fill: #1d1d1d;"/>
        <path d="M2193.32,767.91c-4.79-2.39-8.48-5.68-11.09-9.87-2.61-4.18-3.91-8.94-3.91-14.27,0-8.81,3.32-15.68,9.95-20.63,6.63-4.95,15.01-7.42,25.12-7.42,5,0,9.65.55,13.95,1.63,4.29,1.09,7.58,2.34,9.87,3.75v-5.06c0-6.2-2.18-11.17-6.52-14.92-4.35-3.75-9.84-5.63-16.47-5.63-4.68,0-8.97,1.01-12.89,3.02-3.92,2.01-7.01,4.81-9.3,8.4l-10.44-7.83c3.26-5,7.75-8.92,13.46-11.74,5.71-2.83,12.04-4.24,19-4.24,11.31,0,20.2,2.96,26.67,8.89,6.47,5.93,9.71,14,9.71,24.22v52.69h-13.21v-11.91h-.65c-2.39,4.02-5.98,7.45-10.77,10.28-4.79,2.83-10.17,4.24-16.15,4.24s-11.53-1.2-16.31-3.59ZM2223.98,755.67c4.02-2.39,7.23-5.6,9.62-9.62,2.39-4.02,3.59-8.43,3.59-13.21-2.61-1.74-5.82-3.15-9.62-4.24-3.81-1.08-7.83-1.63-12.07-1.63-7.61,0-13.35,1.58-17.21,4.73-3.86,3.16-5.79,7.23-5.79,12.23,0,4.57,1.74,8.27,5.22,11.09,3.48,2.83,7.88,4.24,13.21,4.24,4.67,0,9.02-1.19,13.05-3.59Z" style="fill: #1d1d1d;"/>
        <path d="M2268.02,685.7h13.21v12.23h.65c2.28-4.13,5.93-7.64,10.93-10.52,5-2.88,10.33-4.32,15.98-4.32,10,0,17.64,2.91,22.92,8.73,5.27,5.82,7.91,13.73,7.91,23.73v53.34h-13.86v-51.22c0-7.72-1.85-13.32-5.55-16.8-3.7-3.48-8.75-5.22-15.17-5.22-4.46,0-8.46,1.25-11.99,3.75-3.54,2.5-6.28,5.79-8.24,9.87-1.96,4.08-2.94,8.35-2.94,12.8v46.81h-13.86v-83.19Z" style="fill: #1d1d1d;"/>
        <path d="M2374.21,765.62c-6.52-3.91-11.61-9.24-15.25-15.98-3.64-6.74-5.46-14.19-5.46-22.35s1.82-15.6,5.46-22.35c3.64-6.74,8.73-12.07,15.25-15.99,6.52-3.92,13.86-5.87,22.02-5.87s15.5,1.96,22.02,5.87c6.52,3.91,11.61,9.24,15.25,15.99,3.64,6.74,5.46,14.19,5.46,22.35s-1.82,15.61-5.46,22.35c-3.64,6.74-8.73,12.07-15.25,15.98-6.52,3.92-13.86,5.87-22.02,5.87s-15.5-1.96-22.02-5.87ZM2410.5,755.1c4.4-2.55,7.94-6.22,10.6-11.01,2.66-4.78,4-10.38,4-16.8s-1.33-12.01-4-16.8c-2.67-4.78-6.2-8.45-10.6-11.01-4.4-2.55-9.16-3.83-14.27-3.83s-9.9,1.28-14.35,3.83c-4.46,2.56-8.02,6.23-10.68,11.01-2.67,4.79-4,10.39-4,16.8s1.33,12.02,4,16.8c2.66,4.79,6.22,8.46,10.68,11.01,4.46,2.56,9.24,3.83,14.35,3.83s9.87-1.28,14.27-3.83Z" style="fill: #1d1d1d;"/>
        <path d="M2451.85,685.7h13.21v12.23h.65c2.28-4.13,5.93-7.64,10.93-10.52,5-2.88,10.33-4.32,15.98-4.32,10,0,17.64,2.91,22.92,8.73,5.27,5.82,7.91,13.73,7.91,23.73v53.34h-13.86v-51.22c0-7.72-1.85-13.32-5.55-16.8-3.7-3.48-8.75-5.22-15.17-5.22-4.46,0-8.46,1.25-11.99,3.75-3.54,2.5-6.28,5.79-8.24,9.87-1.96,4.08-2.94,8.35-2.94,12.8v46.81h-13.86v-83.19Z" style="fill: #1d1d1d;"/>
      </g>
    </g>
  </g>
</svg>